<svg xmlns="http://www.w3.org/2000/svg" width="146" height="85" viewBox="0 0 146 85">
  <defs>
    <style>
      .cls-1 {
        fill: #f0f0f0;
        fill-rule: evenodd;
      }
    </style>
  </defs>
  <path id="logo" class="cls-1" d="M193.2,108.471l-4.13,2.371v4.368l-8.322-3.183-8.432,3.183v-4.368l-4.129-2.371-3.4,7.667,15.979,10.253L196.6,116.138Zm1.142-9.824-1.537-7.861h-0.147l-8.391-4.018-3.389-3.776-3.388,3.776-8.76,4.018h-0.146l-1.169,7.992,10.19,4.681-0.944,5.039,4.217,2.791L185.1,108.5l-1.427-5.039Zm-37.185,39.1a4.318,4.318,0,0,1-1.77.317,3.127,3.127,0,0,1-3.312-3.38,3.329,3.329,0,0,1,3.5-3.508,3.6,3.6,0,0,1,1.591.3l-0.208.7a3.154,3.154,0,0,0-1.352-.278,2.488,2.488,0,0,0-2.616,2.755,2.432,2.432,0,0,0,2.576,2.686,3.481,3.481,0,0,0,1.412-.277Zm6.614-5.729h-2.039v-0.733H166.7v0.733h-2.049v5.947h-0.874v-5.947Zm7.709-.654a10.115,10.115,0,0,1,1.661-.128,2.758,2.758,0,0,1,1.879.554,1.794,1.794,0,0,1,.587,1.4,1.964,1.964,0,0,1-.517,1.427,2.784,2.784,0,0,1-2.049.734,3.019,3.019,0,0,1-.7-0.06v2.676h-0.865v-6.6Zm0.865,3.221a2.894,2.894,0,0,0,.716.069,1.43,1.43,0,0,0,1.681-1.427,1.328,1.328,0,0,0-1.581-1.307,3.631,3.631,0,0,0-.816.069v2.6Zm8.906,1.278-0.7,2.1h-0.9l2.277-6.68h1.045l2.287,6.68h-0.925l-0.716-2.1h-2.377Zm2.2-.674-0.656-1.922c-0.15-.436-0.249-0.833-0.349-1.219h-0.019c-0.1.4-.209,0.8-0.339,1.209l-0.656,1.932h2.019Zm7.6-3.9v2.795h3.242v-2.795h0.874v6.68h-0.874V134.83h-3.242v3.132h-0.865v-6.68h0.865Zm10.631,4.578-0.7,2.1h-0.895l2.278-6.68h1.044l2.288,6.68h-0.926l-0.716-2.1h-2.377Zm2.2-.674-0.657-1.922c-0.15-.436-0.249-0.833-0.349-1.219h-0.019c-0.1.4-.209,0.8-0.338,1.209l-0.656,1.932h2.019Zm47.424,21.673,0.562-1.653-0.58,1.6Zm-136.718-12.99h-2.9L110,145.547v20.775L111.684,168h8.446l1.788-1.666v-4.913h-4.669v1.986h-2.641l-0.015-14.946h2.656v1.987h4.669v-4.905l-1.787-1.674h-5.543Zm43.433,8.519v4.683h1.8v6.337h-2.672v-6.337h0.009v-4.683h-0.009v-6.771h-4.608V168H162.65l1.779-1.7v-12.21l-1.77-1.7h-4.638Zm-29.8,11.019v-17.79h-4.609v20.709L125.328,168h4.627v-4.593h-1.737Zm2.665,0h-0.065V168H135.5V145.617h-4.608Zm42.7-10.949h-2.641v-6.841h-4.608V168h4.608V157.051h2.641V168H178.2V145.617h-4.609v6.841ZM185.2,162.815l-0.027-.656v-5.136h4.014v-4.577H185.17V150.21h5.977v-4.593H180.589V168h10.589v-4.593H185.2v-0.592Zm66.091-6.007,0.58-1.6,0.135-.4,0.008,0L256,143.789h-4.721l-1.66,4.367-0.162.569L249,150.041l-2.212-6.252h-4.715l4.574,13.064-1.116,3.23-0.023-.009L242.783,168H247.5l1.481-4.295,2.328-6.846ZM249.449,165l1.035,3H255.2l-3.435-9.819Zm-51.5-1.594v-17.77h-4.608v20.689L195.06,168h4.692v-4.593h-1.8Zm2.661-3.014h0V168h4.614V145.637h-4.608Zm35.523,0h0.006V168h4.614V145.617h-4.608Zm-2.66,3.014v-17.79h-4.608v20.709L230.584,168h4.692v-4.593h-1.8Zm-11.33,0h-2.66V146.273l-0.017-.656h-4.609v17.79H212.2v-17.79H207.6v20.709L209.313,168h17.432V145.617h-4.608Zm-76.808-17.79h-5.189l-1.715,1.708v16.083H137.3V168h4.021l1.714-1.709V150.21h2.3V168h4.546V145.617h-4.546Zm51.268-4.489v1.951l2.708,1.737,2.731-1.767v-1.921H196.6Z" transform="translate(-110 -83)"/>
</svg>
